<svg xmlns="http://www.w3.org/2000/svg" viewBox="0 0 24 24" role="img" aria-hidden="true">
  <path fill="#EA4335" d="M5.5 4.5h13A2.5 2.5 0 0 1 21 7v10a2.5 2.5 0 0 1-2.5 2.5h-13A2.5 2.5 0 0 1 3 17V7a2.5 2.5 0 0 1 2.5-2.5z"/>
  <path fill="#FBBC05" d="M21 7.8 12 13.5 3 7.8V7a2.5 2.5 0 0 1 2.5-2.5h13A2.5 2.5 0 0 1 21 7v.8z"/>
  <path fill="#34A853" d="M3 7.8v9.2A2.5 2.5 0 0 0 5.5 19.5h13A2.5 2.5 0 0 0 21 16.2V7.8L12 13.5 3 7.8z"/>
  <path fill="#4285F4" d="M21 7v.8L12 13.5 3 7.8V7a2.5 2.5 0 0 1 2.5-2.5h13A2.5 2.5 0 0 1 21 7z"/>
  <path fill="#fff" d="M12 11.2 20.2 6H3.8L12 11.2z" opacity=".9"/>
</svg>
